<svg width="36" height="43" viewBox="0 0 36 43" fill="none" xmlns="http://www.w3.org/2000/svg">
<path fill-rule="evenodd" clip-rule="evenodd" d="M35.6509 21.7849L35.6318 21.8814L35.619 21.9789C34.8426 27.8763 30.4427 33.2795 25.6948 37.4276C23.3812 39.4489 21.1126 41.0616 19.42 42.1691C18.9283 42.4908 18.4872 42.7686 18.1104 43C17.8599 42.8462 17.5811 42.672 17.2779 42.4779C15.8615 41.5714 13.9286 40.2433 11.8719 38.5641C7.68043 35.142 3.31788 30.5375 1.4362 25.3436L1.41287 25.2792L1.38668 25.2159C0.494402 23.0601 0 20.691 0 18.1975C0 8.14729 8.05888 0 18 0C27.9411 0 36 8.14729 36 18.1975C36 19.4283 35.8796 20.6276 35.6509 21.7849Z" fill="#00AEEF"/>
<path d="M28 18C28 12.4772 23.5228 8 18 8C12.4772 8 8 12.4772 8 18C8 23.5228 12.4772 28 18 28C23.5228 28 28 23.5228 28 18Z" fill="white"/>
<path d="M22.0834 21.5C22.2487 21.5 22.3873 21.444 22.4993 21.332C22.6113 21.22 22.6671 21.0816 22.6667 20.9167C22.6664 20.7518 22.6104 20.6133 22.4987 20.5013C22.3871 20.3893 22.2487 20.3333 22.0834 20.3333C21.9181 20.3333 21.7797 20.3893 21.6681 20.5013C21.5565 20.6133 21.5005 20.7518 21.5001 20.9167C21.4997 21.0816 21.5557 21.2202 21.6681 21.3326C21.7805 21.445 21.9189 21.5008 22.0834 21.5ZM22.0834 22.6667C21.5973 22.6667 21.1841 22.4965 20.8438 22.1562C20.5036 21.816 20.3334 21.4028 20.3334 20.9167C20.3334 20.4306 20.5036 20.0174 20.8438 19.6771C21.1841 19.3368 21.5973 19.1667 22.0834 19.1667C22.5695 19.1667 22.9827 19.3368 23.323 19.6771C23.6633 20.0174 23.8334 20.4306 23.8334 20.9167C23.8334 21.4028 23.6633 21.816 23.323 22.1562C22.9827 22.4965 22.5695 22.6667 22.0834 22.6667ZM13.9167 21.5C14.082 21.5 14.2207 21.444 14.3327 21.332C14.4447 21.22 14.5005 21.0816 14.5001 20.9167C14.4997 20.7518 14.4437 20.6133 14.3321 20.5013C14.2205 20.3893 14.082 20.3333 13.9167 20.3333C13.7515 20.3333 13.613 20.3893 13.5014 20.5013C13.3898 20.6133 13.3338 20.7518 13.3334 20.9167C13.333 21.0816 13.389 21.2202 13.5014 21.3326C13.6138 21.445 13.7522 21.5008 13.9167 21.5ZM13.9167 22.6667C13.4306 22.6667 13.0174 22.4965 12.6772 22.1562C12.3369 21.816 12.1667 21.4028 12.1667 20.9167C12.1667 20.4306 12.3369 20.0174 12.6772 19.6771C13.0174 19.3368 13.4306 19.1667 13.9167 19.1667C14.2959 19.1667 14.6362 19.2761 14.9376 19.4951C15.239 19.714 15.448 19.9934 15.5647 20.3333H18.6417C18.7487 19.6722 19.0234 19.0937 19.466 18.5979C19.9086 18.1021 20.4505 17.7569 21.0917 17.5625L20.2751 13.9167H18.5834C18.4181 13.9167 18.2797 13.8607 18.1681 13.7487C18.0565 13.6367 18.0005 13.4982 18.0001 13.3333C17.9997 13.1684 18.0557 13.03 18.1681 12.918C18.2805 12.806 18.4189 12.75 18.5834 12.75H20.2751C20.5473 12.75 20.7904 12.8326 21.0042 12.9979C21.2181 13.1632 21.3542 13.3819 21.4126 13.6542L22.3751 17.9271C22.414 18.0924 22.3799 18.2407 22.273 18.3722C22.1661 18.5036 22.0251 18.5789 21.8501 18.5979C21.2376 18.6465 20.7394 18.897 20.3556 19.3492C19.9717 19.8015 19.7699 20.3337 19.7501 20.9458C19.7501 21.1014 19.6966 21.2326 19.5897 21.3396C19.4827 21.4465 19.3515 21.5 19.1959 21.5H15.5647C15.448 21.8403 15.239 22.1199 14.9376 22.3388C14.6362 22.5578 14.2959 22.6671 13.9167 22.6667Z" fill="#00AEEF"/>
</svg>
