<svg width="20" height="20" viewBox="0 0 20 20" fill="currentColor" xmlns="http://www.w3.org/2000/svg">
<style>
    .colorable { fill: var(--svg-color, black); }
  </style>
<path fill-rule="evenodd" clip-rule="evenodd" d="M1.46447 1.46447C0 2.92893 0 5.28595 0 10C0 14.714 0 17.0711 1.46447 18.5355C2.92893 20 5.28595 20 10 20C14.714 20 17.0711 20 18.5355 18.5355C20 17.0711 20 14.714 20 10C20 5.28595 20 2.92893 18.5355 1.46447C17.0711 0 14.714 0 10 0C5.28595 0 2.92893 0 1.46447 1.46447ZM14.4993 13.332C14.3873 13.444 14.2487 13.5 14.0834 13.5C13.9189 13.5008 13.7805 13.445 13.6681 13.3326C13.5557 13.2202 13.4997 13.0816 13.5001 12.9167C13.5005 12.7518 13.5565 12.6133 13.6681 12.5013C13.7797 12.3893 13.9181 12.3333 14.0834 12.3333C14.2487 12.3333 14.3871 12.3893 14.4987 12.5013C14.6104 12.6133 14.6664 12.7518 14.6667 12.9167C14.6671 13.0816 14.6113 13.22 14.4993 13.332ZM12.8438 14.1562C13.1841 14.4965 13.5973 14.6667 14.0834 14.6667C14.5695 14.6667 14.9827 14.4965 15.323 14.1562C15.6633 13.816 15.8334 13.4028 15.8334 12.9167C15.8334 12.4306 15.6633 12.0174 15.323 11.6771C14.9827 11.3368 14.5695 11.1667 14.0834 11.1667C13.5973 11.1667 13.1841 11.3368 12.8438 11.6771C12.5036 12.0174 12.3334 12.4306 12.3334 12.9167C12.3334 13.4028 12.5036 13.816 12.8438 14.1562ZM6.33266 13.332C6.22066 13.444 6.08203 13.5 5.91675 13.5C5.75225 13.5008 5.6138 13.445 5.50141 13.3326C5.38903 13.2202 5.33303 13.0816 5.33342 12.9167C5.3338 12.7518 5.3898 12.6133 5.50141 12.5013C5.61303 12.3893 5.75147 12.3333 5.91675 12.3333C6.08203 12.3333 6.22047 12.3893 6.33208 12.5013C6.44369 12.6133 6.49969 12.7518 6.50008 12.9167C6.50047 13.0816 6.44466 13.22 6.33266 13.332ZM4.67716 14.1562C5.01744 14.4965 5.43064 14.6667 5.91675 14.6667C6.29591 14.6671 6.63619 14.5578 6.93758 14.3388C7.23897 14.1199 7.448 13.8403 7.56466 13.5H11.1959C11.3515 13.5 11.4827 13.4465 11.5897 13.3396C11.6966 13.2326 11.7501 13.1014 11.7501 12.9458C11.7699 12.3337 11.9717 11.8015 12.3556 11.3492C12.7394 10.897 13.2376 10.6465 13.8501 10.5979C14.0251 10.5789 14.1661 10.5036 14.273 10.3722C14.3799 10.2407 14.414 10.0924 14.3751 9.92708L13.4126 5.65417C13.3542 5.38194 13.2181 5.16319 13.0042 4.99792C12.7904 4.83264 12.5473 4.75 12.2751 4.75H10.5834C10.4189 4.75 10.2805 4.806 10.1681 4.918C10.0557 5.03 9.99969 5.16844 10.0001 5.33333C10.0005 5.49822 10.0565 5.63667 10.1681 5.74867C10.2797 5.86067 10.4181 5.91667 10.5834 5.91667H12.2751L13.0917 9.5625C12.4505 9.75694 11.9086 10.1021 11.466 10.5979C11.0234 11.0938 10.7487 11.6722 10.6417 12.3333H7.56466C7.448 11.9934 7.23897 11.714 6.93758 11.4951C6.63619 11.2761 6.29591 11.1667 5.91675 11.1667C5.43064 11.1667 5.01744 11.3368 4.67716 11.6771C4.33689 12.0174 4.16675 12.4306 4.16675 12.9167C4.16675 13.4028 4.33689 13.816 4.67716 14.1562Z" fill="currentColor"/>
</svg>
